<?xml version="1.0" encoding="UTF-8"?><svg id="Layer_2" xmlns="http://www.w3.org/2000/svg" width="145.13" height="145.13" viewBox="0 0 145.13 145.13"><defs><style>.cls-1{fill:#fff;stroke-width:0px;}.cls-2{fill:#393939;stroke:#c40202;stroke-miterlimit:10;stroke-width:1px;}</style></defs><g id="Layer_1-2"><g id="_Radial_Repeat_"><path class="cls-2" d="M111.85,48.17c-2.3,9.29-5.84,18.54-12.34,25.89-8.34,10.01-23.46,13.16-34.42,5.83-13.13-8.7-14.19-26.41-11.75-40.59,2.18-15.02,10.79-32.67,25.65-37.67,8.33-2.67,18.32-.45,24.88,5.22,10.64,9.3,10.5,28.27,8.01,41.14l-.04.18ZM103.62,46.67c1.71-9.01,1.49-24.83-4.67-32.03-4.16-5.04-11.75-7.03-17.86-4.75-18.53,7.68-26.83,45.31-13.76,60.41,4.13,4.56,11.13,6.26,16.93,4.26,9.83-3.12,16.92-18.34,19.31-27.7l.04-.2Z"/><path class="cls-1" d="M103.58,46.86c-2.39,9.35-9.49,24.58-19.31,27.7-5.8,2-12.8.31-16.93-4.26-13.07-15.1-4.78-52.72,13.76-60.41,6.11-2.28,13.7-.29,17.86,4.75,6.17,7.21,6.38,23.01,4.67,32.03l-.04.2Z"/></g><g id="_Radial_Repeat_-2"><path class="cls-2" d="M117.59,83.09c-8.2,4.95-17.24,8.98-27.03,9.58-12.97,1.18-25.9-7.28-28.46-20.21-3.13-15.43,8.64-28.71,20.4-37.01,12.16-9.08,30.73-15.47,44.77-8.5,7.78,4,13.27,12.64,13.9,21.28.94,14.1-12.57,27.41-23.42,34.76l-.16.1ZM112.84,76.21c7.58-5.16,18.62-16.5,19.35-25.95.62-6.51-3.34-13.28-9.27-15.99-18.54-7.67-51.01,13.06-52.45,32.99-.31,6.15,3.45,12.3,8.96,14.98,9.16,4.74,24.93-1.01,33.24-5.93l.17-.11Z"/><path class="cls-1" d="M112.67,76.32c-8.3,4.92-24.09,10.67-33.24,5.93-5.51-2.69-9.27-8.84-8.96-14.98,1.43-19.92,33.9-40.66,52.45-32.99,5.93,2.71,9.89,9.48,9.27,15.99-.73,9.46-11.76,20.78-19.35,25.95l-.17.11Z"/></g><g id="_Radial_Repeat_-3"><path class="cls-2" d="M96.96,111.84c-9.29-2.3-18.54-5.84-25.89-12.34-10.01-8.34-13.16-23.46-5.83-34.42,8.7-13.13,26.41-14.19,40.59-11.75,15.02,2.18,32.67,10.79,37.67,25.65,2.67,8.33.45,18.32-5.22,24.88-9.3,10.64-28.27,10.5-41.14,8.01l-.18-.04ZM98.46,103.62c9.01,1.71,24.83,1.49,32.03-4.67,5.04-4.16,7.03-11.75,4.75-17.86-7.68-18.53-45.31-26.83-60.41-13.76-4.56,4.13-6.26,11.13-4.26,16.93,3.12,9.83,18.34,16.92,27.7,19.31l.2.04Z"/><path class="cls-1" d="M98.27,103.58c-9.35-2.39-24.58-9.49-27.7-19.31-2-5.8-.31-12.8,4.26-16.93,15.1-13.07,52.72-4.78,60.41,13.76,2.28,6.11.29,13.7-4.75,17.86-7.21,6.17-23.01,6.38-32.03,4.67l-.2-.04Z"/></g><g id="_Radial_Repeat_-4"><path class="cls-2" d="M62.04,117.59c-4.95-8.2-8.98-17.24-9.58-27.03-1.18-12.97,7.28-25.9,20.21-28.46,15.43-3.13,28.71,8.64,37.01,20.4,9.08,12.16,15.47,30.73,8.5,44.77-4,7.78-12.64,13.27-21.28,13.9-14.1.94-27.41-12.57-34.76-23.42l-.1-.16ZM68.92,112.84c5.16,7.58,16.5,18.62,25.95,19.35,6.51.62,13.28-3.34,15.99-9.27,7.67-18.54-13.06-51.01-32.99-52.45-6.15-.31-12.3,3.45-14.98,8.96-4.74,9.16,1.01,24.93,5.93,33.24l.11.17Z"/><path class="cls-1" d="M68.81,112.67c-4.92-8.3-10.67-24.09-5.93-33.24,2.69-5.51,8.84-9.27,14.98-8.96,19.92,1.43,40.66,33.9,32.99,52.45-2.71,5.93-9.48,9.89-15.99,9.27-9.46-.73-20.78-11.76-25.95-19.35l-.11-.17Z"/></g><g id="_Radial_Repeat_-5"><path class="cls-2" d="M33.28,96.96c2.3-9.29,5.84-18.54,12.34-25.89,8.34-10.01,23.46-13.16,34.42-5.83,13.13,8.7,14.19,26.41,11.75,40.59-2.18,15.02-10.79,32.67-25.65,37.67-8.33,2.67-18.32.45-24.88-5.22-10.64-9.3-10.5-28.27-8.01-41.14l.04-.18ZM41.51,98.46c-1.71,9.01-1.49,24.83,4.67,32.03,4.16,5.04,11.75,7.03,17.86,4.75,18.53-7.68,26.83-45.31,13.76-60.41-4.13-4.56-11.13-6.26-16.93-4.26-9.83,3.12-16.92,18.34-19.31,27.7l-.04.2Z"/><path class="cls-1" d="M41.55,98.27c2.39-9.35,9.49-24.58,19.31-27.7,5.8-2,12.8-.31,16.93,4.26,13.07,15.1,4.78,52.72-13.76,60.41-6.11,2.28-13.7.29-17.86-4.75-6.17-7.21-6.38-23.01-4.67-32.03l.04-.2Z"/></g><g id="_Radial_Repeat_-6"><path class="cls-2" d="M27.54,62.04c8.2-4.95,17.24-8.98,27.03-9.58,12.97-1.18,25.9,7.28,28.46,20.21,3.13,15.43-8.64,28.71-20.4,37.01-12.16,9.08-30.73,15.47-44.77,8.5-7.78-4-13.27-12.64-13.9-21.28-.94-14.1,12.57-27.41,23.42-34.76l.16-.1ZM32.29,68.92c-7.58,5.16-18.62,16.5-19.35,25.95-.62,6.51,3.34,13.28,9.27,15.99,18.54,7.67,51.01-13.06,52.45-32.99.31-6.15-3.45-12.3-8.96-14.98-9.16-4.74-24.93,1.01-33.24,5.93l-.17.11Z"/><path class="cls-1" d="M32.46,68.81c8.3-4.92,24.09-10.67,33.24-5.93,5.51,2.69,9.27,8.84,8.96,14.98-1.43,19.92-33.9,40.66-52.45,32.99-5.93-2.71-9.89-9.48-9.27-15.99.73-9.46,11.76-20.78,19.35-25.95l.17-.11Z"/></g><g id="_Radial_Repeat_-7"><path class="cls-2" d="M48.17,33.28c9.29,2.3,18.54,5.84,25.89,12.34,10.01,8.34,13.16,23.46,5.83,34.42-8.7,13.13-26.41,14.19-40.59,11.75-15.02-2.18-32.67-10.79-37.67-25.65-2.67-8.33-.45-18.32,5.22-24.88,9.3-10.64,28.27-10.5,41.14-8.01l.18.04ZM46.67,41.51c-9.01-1.71-24.83-1.49-32.03,4.67-5.04,4.16-7.03,11.75-4.75,17.86,7.68,18.53,45.31,26.83,60.41,13.76,4.56-4.13,6.26-11.13,4.26-16.93-3.12-9.83-18.34-16.92-27.7-19.31l-.2-.04Z"/><path class="cls-1" d="M46.86,41.55c9.35,2.39,24.58,9.49,27.7,19.31,2,5.8.31,12.8-4.26,16.93-15.1,13.07-52.72,4.78-60.41-13.76-2.28-6.11-.29-13.7,4.75-17.86,7.21-6.17,23.01-6.38,32.03-4.67l.2.04Z"/></g><g id="_Radial_Repeat_-8"><path class="cls-2" d="M83.09,27.54c4.95,8.2,8.98,17.24,9.58,27.03,1.18,12.97-7.28,25.9-20.21,28.46-15.43,3.13-28.71-8.64-37.01-20.4-9.08-12.16-15.47-30.73-8.5-44.77,4-7.78,12.64-13.27,21.28-13.9,14.1-.94,27.41,12.57,34.76,23.42l.1.16ZM76.21,32.29c-5.16-7.58-16.5-18.62-25.95-19.35-6.51-.62-13.28,3.34-15.99,9.27-7.67,18.54,13.06,51.01,32.99,52.45,6.15.31,12.3-3.45,14.98-8.96,4.74-9.16-1.01-24.93-5.93-33.24l-.11-.17Z"/><path class="cls-1" d="M76.32,32.46c4.92,8.3,10.67,24.09,5.93,33.24-2.69,5.51-8.84,9.27-14.98,8.96-19.92-1.43-40.66-33.9-32.99-52.45,2.71-5.93,9.48-9.89,15.99-9.27,9.46.73,20.78,11.76,25.95,19.35l.11.17Z"/></g></g></svg>